<svg width="393" height="401" viewBox="0 0 393 401" fill="none" xmlns="http://www.w3.org/2000/svg">
<path fill-rule="evenodd" clip-rule="evenodd" d="M383.976 224.645C379.186 225.115 374.396 225.585 369.605 226.055C346.663 227.808 323.729 231.469 300.962 233.666C300.395 232.743 299.286 232.895 298.612 233.536C296.34 233.337 293.794 231.601 291.736 233.407C291.669 233.398 291.603 233.387 291.535 233.38C287.871 226.348 285.338 218.847 282.88 211.336C281.311 206.718 279.2 202.248 275.299 199.147C268.642 194.526 253.389 185.155 245.572 185.549C245.442 184.149 244.79 182.707 243.718 181.775C246.079 177.749 236.639 175.123 235.973 175.59C236.4 162.141 230.073 150.462 216.124 147.784C203.628 145.18 185.853 144.742 179.132 157.802C178.393 157.719 170.841 157.68 170.111 157.761C168.975 156.323 156.498 169.957 161.612 174.704C115.896 194.927 89.9013 192.514 77.2478 249.367C75.5371 254.708 75.4125 260.552 73.6062 265.774C67.1797 280.78 61.9672 296.759 60.6699 313.087C57.5367 313.89 57.1764 319.414 60.8056 320.213C62.1918 320.519 63.3511 320.936 64.3619 321.728C63.5717 335.109 66.8079 365.675 68.847 365.581C73.0047 378.813 91.5504 382.548 104.68 377.897C102.417 382.156 104.68 384.833 104.68 387.108C151.924 388.896 203.581 387.866 250.812 390.318C256.854 390.232 263.208 391.801 269.167 390.898C272.802 390.027 272.808 384.313 269.121 383.606L285.229 380.108C284.869 379.972 291.868 375.316 297.158 366.616C302.082 356.884 298.731 345.136 300.962 334.55C318.388 333.125 336.102 332.516 353.338 329.564C355.688 336.596 365.861 328.187 369.094 324.804C369.09 324.799 369.086 324.794 369.082 324.788C370.647 324.36 371.902 322.893 371.944 321.157C373.042 319.589 373.272 317.379 372.219 315.864C377.043 288.03 384.397 259.611 387.055 231.515C387.994 231.307 388.879 230.895 389.629 230.261L389.569 230.2C390.84 228.783 391.087 226.337 388.968 225.133C387.259 224.161 385.831 224.462 383.976 224.645Z" fill="white"/>
<path fill-rule="evenodd" clip-rule="evenodd" d="M180.002 154.77C181.426 151.193 186.238 152.583 185.701 156.341C185.38 158.592 184.147 160.97 183.04 162.943C182.138 164.549 181.11 166.116 179.715 167.32C182.198 169.636 184.774 171.867 187.417 173.986C190.3 176.298 193.331 178.429 196.465 180.388C199.213 182.105 202.085 183.627 204.675 185.587C207.084 187.409 209.278 189.6 210.394 192.461C211.583 195.507 211.066 198.653 210.191 201.697L210.09 202.041C209.195 205.057 207.646 208.693 209.794 211.534C210.887 212.981 212.477 214.005 213.849 215.162C215.069 216.19 216.214 217.307 217.264 218.508C219.554 221.126 221.416 224.071 222.591 227.352L222.696 227.65C223.704 230.555 224.44 234.114 223.079 236.966C222.688 237.784 221.429 237.518 221.21 236.722C220.716 234.919 220.741 233.03 220.327 231.201C219.895 229.299 219.177 227.493 218.24 225.785C216.426 222.48 213.969 219.657 211.066 217.271L210.197 216.564C207.932 214.706 205.852 212.734 205.392 209.659C204.9 206.368 206.219 203.233 207.066 200.119C207.657 197.948 207.85 195.867 207.212 193.906C206.432 195.179 205.368 196.387 204.526 197.465C202.849 199.613 201.157 201.747 199.47 203.885C197.739 206.078 196.051 208.305 194.444 210.59C193.725 211.612 193.014 212.641 192.305 213.67C191.772 214.443 191.029 215.216 190.448 216.005C190.589 216.427 190.578 216.914 190.322 217.259C187.241 221.423 182.857 212.736 181.714 210.541C179.386 206.072 177.653 201.323 175.317 196.855C172.896 192.223 170.14 187.714 167.068 183.485C165.21 180.927 163.127 178.524 161.427 175.885C157.423 179.516 152.153 181.95 147.313 184.158C141.995 186.583 136.47 188.564 131.017 190.667L129.407 191.293C120.012 194.96 110.387 198.988 102.578 205.5C93.4019 213.154 87.9732 223.82 83.9317 234.866C79.2793 247.583 75.4304 260.642 71.8425 273.693C70.0064 280.371 68.2643 287.079 66.6265 293.808C65.1832 299.736 63.9869 305.724 62.3163 311.591C65.7046 311.472 69.5689 312.783 72.4617 313.162C85.6456 314.888 98.6521 317.639 111.099 322.402C112.637 322.99 113.082 324.525 112.747 325.77C113.633 325.52 114.519 325.266 115.406 325.017C114.435 323.529 114.898 320.868 114.975 319.218L114.979 319.104C115.058 316.906 115.296 314.705 115.451 312.511C115.746 308.328 116.129 304.176 116.639 300.016L116.769 298.977C117.347 294.452 117.774 289.9 118.404 285.383L118.478 284.866C118.176 283.71 117.824 282.569 117.455 281.432C116.471 278.404 115.081 275.555 113.864 272.622C113.72 272.277 114.212 272.079 114.442 272.286C116.504 274.141 118.142 276.494 119.457 278.955C119.48 278.839 119.5 278.722 119.524 278.606L119.674 277.867C120.044 276.065 120.495 274.169 121.6 272.707C121.718 272.552 121.951 272.519 122.062 272.707C123.12 274.497 123.239 276.765 123.402 278.802C123.586 281.107 123.609 283.441 123.576 285.752C123.513 290.269 123.195 294.798 122.941 299.307C122.692 303.738 122.203 308.113 121.574 312.5L121.454 313.323C121.146 315.412 120.894 317.526 120.488 319.6L120.374 320.165C120.156 321.193 120.023 322.643 119.591 323.848C130.708 320.747 141.842 317.717 152.997 314.741C161.06 312.589 169.131 310.469 177.198 308.336C177.624 307.569 178.154 306.853 178.816 306.212C180.995 304.101 183.884 303.16 186.533 304.784C186.748 304.917 186.766 305.254 186.533 305.382C186.025 305.66 185.517 305.944 185.017 306.241L189.861 304.929C193.482 303.947 197.146 302.721 200.852 302.037C207.678 298.669 215.02 296.23 222.21 293.821L223.058 293.534C226.74 292.279 230.548 290.874 234.352 290.178C237.137 289.668 240.405 290.283 241.525 293.136C242.943 294.07 244.277 295.168 245.564 296.248C246.495 297.028 247.387 297.858 248.294 298.666L248.461 298.813C249.203 299.456 249.79 299.887 249.972 300.911C250.066 301.44 249.73 302.156 249.077 302.085C247.081 301.872 245.458 299.558 244.104 298.176C243.058 297.108 242.003 296.003 241.049 294.829C240.492 295.132 239.729 295.078 239.375 294.407C237.538 290.928 232.505 293.339 229.721 294.164L225.732 295.344C223.738 295.936 221.744 296.53 219.754 297.134C214.285 298.795 208.842 300.654 203.322 302.179C203.816 302.722 203.748 303.688 202.81 304.055C198.49 305.75 193.75 306.627 189.262 307.79C186.428 308.525 183.596 309.264 180.765 310.008C180.28 310.794 179.93 311.684 179.783 312.72C179.243 316.528 180.285 320.921 181.3 324.604L181.453 325.153C182.287 328.114 183.515 331.744 186.07 333.614C186.693 334.07 187.487 334.387 188.288 334.459C193.289 331.885 198.289 329.311 203.293 326.742C204.22 326.266 205.076 326.91 205.284 327.677C207.049 327.387 208.809 326.931 210.412 326.387C213.106 325.472 215.209 323.727 217.735 322.52C222.621 320.186 227.612 323.053 231.987 325.233L232.995 325.729C234.957 326.681 239.039 328.509 239.98 325.906C240.891 323.387 238.012 320.695 236.153 319.562C233.937 318.21 231.356 317.487 228.852 316.884C227.421 316.54 225.974 316.259 224.518 316.054C222.866 315.822 221.159 315.857 219.569 315.321C218.779 315.055 218.657 313.8 219.569 313.593C222.017 313.035 224.939 313.643 227.494 314.264L228.83 314.593C231.404 315.225 234.003 316.018 236.347 317.278C238.052 318.194 239.852 319.587 241.027 321.291C242.048 320.343 243.319 320.375 244.642 320.726L245.361 320.926C246.547 321.255 247.508 321.481 248.662 321.253C248.817 320.414 248.973 319.573 249.141 318.733C250.785 310.476 252.589 302.25 254.58 294.068C258.013 279.955 261.986 265.998 266.464 252.183L266.914 250.802C267.947 247.642 268.778 244.199 270.443 241.296C272.018 238.552 274.542 236.97 277.54 236.133C280.942 235.183 284.518 234.686 287.988 234.044C288.763 233.901 289.539 233.765 290.314 233.625C289.659 232.442 289.17 231.1 288.73 230.07L288.653 229.892C287.707 227.735 286.857 225.539 286.036 223.332L285.423 221.673C283.941 217.677 282.412 213.747 280.328 210.009C278.136 206.076 275.227 202.861 271.601 200.199C264.207 194.773 255.296 192.005 248.125 186.205C247.832 185.968 248.208 185.562 248.507 185.712C253.348 188.145 258.576 189.799 263.612 191.78L264.605 192.172C268.586 193.75 272.628 195.467 276.074 198.022C279.915 200.871 282.94 204.409 285.214 208.616C287.455 212.763 288.888 217.405 290.47 221.835L290.892 223.015C291.53 224.785 292.189 226.55 292.944 228.272C293.543 229.64 294.661 231.201 295.169 232.763C296.56 232.521 297.95 232.279 299.342 232.047C329.49 227.013 359.975 224.056 390.528 223.191C391.724 223.157 392.342 224.297 392.166 225.34C389.234 242.678 386.628 260.075 383.769 277.426C382.521 284.999 381.248 292.566 379.946 300.129C379.286 303.961 378.523 307.778 377.898 311.615C377.393 314.714 377.027 317.838 376.161 320.865C375.384 323.579 374.191 326.197 372.233 328.268C370.122 330.5 367.176 331.581 364.211 332.091C356.682 333.387 348.96 333.916 341.371 334.779L300.964 339.376C301.554 344.743 301.598 350.027 301.327 355.456L301.173 358.421C301.047 360.805 300.896 363.192 300.553 365.552C300.124 368.512 298.77 371.018 296.776 373.229C294.944 375.259 292.719 376.992 290.555 378.652C288.309 380.375 285.988 382.039 283.346 383.105L283.004 383.241C280.687 384.145 276.34 385.546 273.173 385.034C273.587 387.109 274.388 389.339 273.678 391.391C273.348 392.344 272.102 392.82 271.338 392.009C269.826 390.402 269.708 388.279 269.349 386.182C268.977 384 268.655 381.81 268.37 379.615C267.818 375.371 267.388 371.088 267.257 366.808C267.122 362.413 267.174 358.011 267.411 353.621C267.532 351.366 267.683 349.113 267.97 346.872C268.092 345.917 268.216 344.961 268.359 344.008C268.411 343.66 268.469 343.314 268.531 342.969L264.904 343.378C259.343 343.999 253.779 344.56 248.179 344.647C247.516 344.657 247.005 344.355 246.672 343.915C246.317 344.494 245.698 344.908 244.812 344.904C236.991 344.875 229.708 342.318 222.594 339.304C219.009 337.784 215.479 336.139 211.888 334.632C208.536 333.226 204.953 332.223 201.682 330.639L193.087 335.147C193.024 335.368 192.943 335.578 192.857 335.754C192.298 336.896 191.194 337.515 190.067 337.982C188.986 338.431 187.866 338.571 186.774 338.457C180.256 341.873 173.736 345.286 167.212 348.69L160.686 352.092C147.684 358.861 134.734 365.742 121.65 372.353L120.687 372.838C116.168 375.104 111.315 377.401 106.3 379.115C106.211 380.384 106.267 381.619 106.374 382.962L106.399 383.255C106.549 384.843 106.869 386.832 105.596 387.962C104.933 388.55 103.75 388.553 103.299 387.666C102.482 386.059 103.216 383.525 103.475 381.779C103.566 381.158 103.679 380.52 103.844 379.9C98.0948 381.612 92.1713 382.442 86.3206 381.481C80.6242 380.546 76.2124 376.957 72.6556 372.568C68.902 367.936 66.2346 362.538 64.8035 356.751C63.1747 350.166 63.0684 343.366 63.1066 336.621C63.1472 329.439 63.4129 322.221 64.2865 315.087C63.3294 314.862 62.2679 314.668 61.3008 314.735C60.8217 315.501 59.8924 315.824 59.0527 315.725C57.2267 317.738 61.8583 319.797 63.3385 320.312C63.8524 320.491 63.7974 321.326 63.2046 321.301L62.8312 321.283C60.5441 321.161 58.1813 320.771 56.8366 318.645C55.759 316.942 56.0828 314.923 57.3673 313.534C58.2157 305.512 60.244 297.701 62.1317 289.875C63.9842 282.195 66.0444 274.563 68.228 266.97L69.207 263.572C72.645 251.666 76.2387 239.665 80.9812 228.232C83.3493 222.524 86.0774 216.92 89.7754 211.943C93.2224 207.303 97.2921 203.333 101.97 199.942C110.691 193.619 120.924 189.799 130.978 186.16L131.428 185.997C136.638 184.112 141.836 182.205 146.987 180.163C151.542 178.357 155.906 176.067 160.44 174.234C160.293 173.967 160.151 173.696 160.014 173.423L159.93 173.494C159.916 173.505 159.901 173.516 159.886 173.526C159.43 173.842 158.758 173.687 158.383 173.333C157.322 172.331 157.681 171.22 158.389 170.182L158.481 170.05C159.348 168.836 160.12 167.554 160.92 166.296L161.42 165.51C162.762 163.409 164.172 161.295 165.961 159.559C166.79 158.754 167.697 158.152 168.658 157.704C168.576 157.53 169.297 157.175 169.501 157.353C172.546 156.239 176.05 156.472 179.369 156.78M299.008 339.598L294.775 340.079C290.117 340.609 285.457 341.122 280.797 341.629L270.675 342.729C270.649 343.306 270.579 343.871 270.566 344.307C270.5 346.553 270.451 348.801 270.404 351.048C270.311 355.553 270.413 360.062 270.71 364.558C270.997 368.915 271.376 373.272 271.964 377.599L272.085 378.464L272.155 378.919C272.635 378.965 273.106 379.193 273.498 379.662C274.355 380.684 277.455 379.691 278.665 379.26C280.657 378.551 282.532 377.354 284.262 376.154C285.951 374.982 287.472 373.615 288.934 372.176L290.131 370.993C291.32 369.81 292.512 368.551 293.241 367.063C294.229 365.046 294.357 362.571 294.647 360.374C295.004 357.672 295.429 354.97 295.878 352.282M176.105 311.236L175.666 311.352C159.714 315.59 143.785 319.954 127.784 324.006C119.865 326.011 111.909 327.871 103.981 329.838L102.697 330.159C96.4426 331.74 90.1129 333.642 85.3232 338.179C85.1465 338.346 84.8898 338.089 85.0562 337.912C90.2182 332.417 97.5598 330.09 104.609 328.074C105.912 327.701 107.216 327.337 108.52 326.966C98.9332 323.549 89.1953 320.576 79.2327 318.455C76.6673 317.909 74.072 317.508 71.5087 316.96C69.7209 316.577 67.9751 316.024 66.2062 315.566L64.8149 315.216L64.7964 319.613C64.7733 325.841 64.7843 332.064 65.1021 338.291L65.1622 339.445C65.5329 346.375 66.1116 353.449 68.5709 359.983C70.5693 365.293 73.7547 370.296 77.9203 374.163C80.0281 376.12 82.2942 377.643 85.0955 378.396C87.6964 379.094 90.4215 379.176 93.0952 378.989C105.92 378.095 117.336 371.128 128.477 365.36C146.699 355.925 164.923 346.495 183.164 337.097C182.671 336.76 182.206 336.371 181.784 335.935C179.338 333.409 178.048 329.95 177.2 326.601C176.298 323.037 175.759 319.216 175.696 315.536M199.314 340.739C199.475 340.652 199.662 340.761 199.669 340.942C199.726 342.336 198.956 343.71 198.38 344.965L198.32 345.099C197.621 346.653 196.856 348.187 196.064 349.697C194.482 352.713 192.839 355.697 191.123 358.639C187.673 364.557 183.839 370.226 179.307 375.379C178.284 376.543 176.6 375.05 177.257 373.797C180.424 367.755 184.116 362.05 187.916 356.395C189.819 353.564 191.72 350.73 193.641 347.911C194.443 346.735 195.255 345.563 196.088 344.409L196.591 343.718M388.508 226.651C372.5 227.135 356.511 228.179 340.579 229.815C325.762 231.336 311 233.361 296.321 235.886C293.255 236.413 290.193 236.962 287.134 237.533L285.3 237.878C282.241 238.458 278.504 238.697 275.781 240.331C272.909 242.054 272.133 245.654 271.178 248.623C270.055 252.114 268.96 255.616 267.895 259.126C263.665 273.063 259.802 287.12 256.355 301.271C254.644 308.295 253.126 315.358 251.526 322.407C250.105 328.671 248.537 334.863 246.899 341.064C247.101 340.907 247.349 340.787 247.648 340.724C255.782 338.993 264.086 338.241 272.342 337.285L273.141 337.191C281.682 336.187 290.223 335.19 298.769 334.229L355.35 327.866C358.687 327.491 362.262 327.44 365.509 326.545C371.03 325.022 372.324 318.849 373.251 313.933L373.279 313.785C376.071 298.932 378.295 283.95 380.899 269.06M248.216 323.798C246.019 323.653 243.013 321.641 241.346 321.786C242.221 323.254 242.616 324.928 242.112 326.716C240.708 331.692 234.362 329.117 231.305 327.597C228.799 326.35 226.379 324.825 223.604 324.241C220.461 323.58 218.331 324.83 215.675 326.271C213.494 327.454 211.119 328.304 208.676 328.743C207.377 328.978 206.143 329.002 204.911 328.911C204.837 328.972 204.754 329.028 204.658 329.078L204.007 329.419C206.953 329.554 209.953 330.463 212.695 331.296C215.535 332.158 218.324 333.197 221.098 334.26L223.827 335.309C230.559 337.887 237.527 340.334 244.812 340.313C245.336 340.312 245.765 340.457 246.102 340.693M235.926 308.207C238.096 307.942 240.099 308.226 241.833 309.639C243.924 311.343 245.329 314.168 248.336 314.353C249.212 314.407 249.416 315.64 248.545 315.898C246.307 316.56 244.495 315.35 242.97 313.777L241.945 312.706C240.438 311.146 239.049 309.94 236.492 310.033C233.754 310.133 231.011 310.766 228.29 311.088C225.209 311.452 222.128 311.763 219.036 312.031C218.893 312.043 218.868 311.817 219.003 311.784L222.465 310.922M233.831 299.335L234.189 299.299C237.34 298.993 240.222 298.981 243.036 300.677L243.576 301.003C246.114 302.545 248.876 304.362 250.463 306.86C250.722 307.268 250.293 307.749 249.859 307.645C246.809 306.913 244.579 304.676 242.015 303.001C239.136 301.122 236.163 301.432 232.881 301.723C229.703 302.006 226.527 302.395 223.381 302.924C220.424 303.422 217.458 304.207 214.472 304.457L214.473 304.451C214.131 304.45 213.937 303.938 214.285 303.764C217.315 302.251 220.826 301.535 224.122 300.843M125.92 213.643C125.917 213.394 126.267 213.301 126.39 213.516C128.44 217.124 129.512 221.546 130.604 225.52C131.748 229.683 132.672 233.889 133.501 238.125C135.182 246.704 136.077 255.233 136.138 263.976C136.146 265.224 134.113 265.557 133.914 264.277C132.593 255.773 131.327 247.259 129.997 238.757C129.327 234.481 128.548 230.221 127.802 225.957M146.22 219.927C146.069 219.429 146.793 219.263 146.978 219.718C151.093 229.818 152.486 241.266 149.844 251.922C149.44 253.552 147.053 252.846 147.357 251.236M199.298 210.951C199.277 210.579 199.76 210.52 199.943 210.776C201.892 213.524 202.701 217.203 206.122 218.623C207.83 219.331 209.752 219.208 211.261 220.405C212.27 221.206 213.043 222.47 212.286 223.683C212.042 224.075 211.358 224.271 211.027 223.845C210.543 223.225 210.287 222.482 209.63 222.017C208.703 221.361 207.453 221.321 206.39 221.013C205.015 220.614 203.804 219.917 202.811 218.88M231.872 165.131C232.073 165.028 232.266 165.094 232.394 165.267C232.578 165.515 232.555 165.756 232.331 165.926C232.631 166.539 232.985 168.076 233.036 168.3C233.241 169.207 233.46 170.109 233.688 171.01C234.149 172.827 234.553 174.659 235.014 176.477C235.504 178.404 236.086 180.31 236.735 182.189C236.777 182.311 236.823 182.435 236.871 182.561L236.945 182.751L236.963 182.723C237.095 182.514 237.369 182.66 237.337 182.88C237.306 183.081 237.266 183.28 237.232 183.481L237.299 183.661C237.724 184.802 238.014 186.005 237.236 187.012C236.945 187.389 236.624 187.612 236.225 187.678C235.585 189.788 234.782 191.859 233.922 193.848L233.67 194.429C232.405 197.331 231.056 200.195 229.043 202.665C226.844 205.362 223.82 207.204 221.904 210.16C221.013 211.534 220.393 212.98 219.89 214.533L219.701 215.122C219.344 216.22 218.932 217.284 217.901 217.929C217.573 218.134 217.08 218.068 216.815 217.788C214.703 215.554 216.914 211.381 218.188 209.218C219.959 206.209 222.521 204.284 225.087 202.015C227.853 199.568 229.618 196.295 231.324 193.071C232.369 191.095 233.379 189.078 234.441 187.094C233.331 186.112 232.976 184.164 232.6 182.809L232.565 182.688C231.944 180.519 231.45 178.293 231.138 176.058C230.838 173.908 230.712 171.79 230.792 169.629L230.815 169.078M235.999 175.36C235.754 175.024 236.16 174.643 236.496 174.713C238.542 175.136 240.542 176.374 242.378 177.376L242.574 177.482C244.04 178.272 245.515 179.241 246.285 180.776C247.122 182.445 247.053 184.367 246.938 186.181L246.928 186.35C246.788 188.525 246.765 190.785 246.305 192.921C246.069 194.014 245.079 194.322 244.233 194.063C243.226 197.243 240.397 199.586 238.33 202.096C235.696 205.295 236.191 209.614 236.467 213.467C236.578 215.027 234.638 215.47 233.638 214.638L231.335 212.725C230.952 212.406 230.569 212.086 230.187 211.765C229.859 211.489 229.535 211.212 229.214 210.931L228.733 210.507C228.52 210.317 227.581 209.267 227.306 209.223C226.64 209.117 225.059 210.871 224.518 211.421L224.45 211.49C223.431 212.489 222.511 213.563 221.654 214.703C221.496 214.912 221.188 214.738 221.301 214.497C222.069 212.851 222.962 211.278 224.022 209.806L224.236 209.513C224.942 208.562 225.889 206.884 227.134 206.603C228.655 206.26 230.173 207.785 231.279 208.631L231.349 208.684C231.876 209.079 232.396 209.481 232.915 209.886C232.861 207.017 233.223 204.119 234.705 201.646C235.749 199.903 237.314 198.612 238.652 197.114C240.143 195.445 240.921 193.395 242.271 191.657C242.444 191.434 242.684 191.313 242.943 191.275C242.995 189.878 243.201 188.468 243.36 187.086L243.406 186.672C243.566 185.171 243.946 183.337 243.211 181.932C242.517 180.604 240.924 179.666 239.744 178.765L238.781 178.018M169.603 159.486C168.987 159.842 168.412 160.285 167.889 160.839C166.245 162.583 165.07 164.754 163.926 166.842C163.31 167.966 162.716 169.103 162.095 170.225C161.825 170.713 161.547 171.196 161.266 171.678C161.137 171.9 160.751 172.342 160.56 172.614C160.772 172.911 160.992 173.204 161.216 173.494C161.301 173.605 167.199 180.03 169.255 182.544C172.403 186.396 175.217 190.464 177.623 194.819C179.979 199.083 181.772 203.598 183.954 207.945C185.047 210.121 186.267 212.282 187.821 214.165C187.881 214.239 187.945 214.308 188.006 214.38C188.6 212.777 190.12 211.061 190.867 210.075L190.937 209.982C192.631 207.699 194.42 205.484 196.247 203.307C197.917 201.32 199.628 199.375 201.382 197.462L202.041 196.746C203.262 195.427 204.814 193.452 206.602 192.51C206.411 192.168 206.189 191.83 205.934 191.497C204.258 189.308 201.89 187.719 199.553 186.285L198.038 185.363C192.325 181.882 186.702 178.24 181.743 173.717C179.119 171.323 176.531 168.816 174.326 166.025L173.546 165.038M179.135 157.762C176.46 157.987 173.571 157.933 171.099 158.805C173.297 160.883 175.386 163.126 177.532 165.238C177.723 163.81 178.113 162.398 178.444 161.005" fill="#222831"/>
<path d="M326.139 295.173H323.243L310.944 280.715L298.639 295.173H295.738L309.493 279.016L310.939 277.317L312.389 279.016L326.139 295.173Z" fill="#0091FF"/>
<path d="M340.062 295.14L340.017 295.174H337.192L320.875 275.999L316.493 281.154L315.043 279.45L319.425 274.3L320.875 272.601L322.32 274.3L340.062 295.14Z" fill="#0091FF"/>
<path d="M353.249 295.173H350.358L330.407 271.734L326.379 276.471L324.934 274.772L328.962 270.035L330.407 268.336L331.852 270.04L353.249 295.173Z" fill="#0091FF"/>
<path fill-rule="evenodd" clip-rule="evenodd" d="M225.136 49.086C186.526 47.677 149.633 73.6257 137.211 110.303C136.308 113.18 139.117 115.868 141.951 115.381C139.053 129.976 145.388 149.622 161.889 151.692C165.269 152.119 168.667 151.873 172.052 152.184C175.069 152.46 191.492 161.699 197.642 163.864C210.59 168.386 243.172 167.558 256.133 163.864C256.605 164.937 266.671 123.658 268.963 110.86C269.799 105.314 262.161 101.209 262.724 95.4948C263.448 88.1546 272.033 79.2051 269.403 72.2171C262.469 54.4314 242.347 49.4687 225.136 49.086Z" fill="white"/>
<path fill-rule="evenodd" clip-rule="evenodd" d="M205.961 16.7527C207.695 16.8969 209.44 17.1418 211.154 17.4639C216.364 16.6118 221.755 17.5578 226.807 19.1983C238.64 23.0395 250.029 29.7088 258.946 38.4144C263.535 42.8964 267.289 48.0594 269.601 54.0644C270.775 57.1105 271.436 60.3613 271.627 63.6188L271.648 64.0135C271.702 65.0943 271.726 66.3902 271.597 67.674C272.01 70.2656 272.378 72.8782 272.406 75.4993C272.419 76.7134 272.34 77.9255 272.193 79.1295L272.243 79.2439C272.029 80.6814 271.774 82.1129 271.483 83.537L271.41 83.6313C271.37 83.9208 271.324 84.2096 271.281 84.4985C271.122 85.2305 270.957 85.9608 270.781 86.6885C270.402 88.2642 269.981 89.8295 269.528 91.3855C269.449 91.6582 269.525 91.8733 269.674 92.0145C269.344 93.1987 268.983 94.3743 268.583 95.537C268.78 96.5545 268.978 97.5717 269.188 98.5855C270.285 103.859 271.214 109.166 272.462 114.41C274.992 125.051 278.837 135.521 279.893 146.461C280.715 154.946 279.35 164.221 274.076 171.152C269.53 177.124 262.693 180.65 255.31 181.589C251.777 182.042 248.154 181.834 244.698 180.942L244.322 180.842C242.591 180.376 240.389 179.647 238.781 178.473C237.036 177.859 235.389 176.725 234.396 175.618C233.041 174.105 231.561 171.518 231.93 169.368C229.914 169.532 227.884 169.579 225.888 169.572C220.97 169.562 216.008 169.173 211.278 167.744C207.058 166.469 202.14 164.339 199.644 160.494C199.526 160.313 199.721 160.052 199.926 160.122C201.942 160.83 203.827 161.786 205.907 162.326C207.954 162.856 210 163.356 212.11 163.574C216.236 163.999 220.423 163.942 224.563 163.738L225.983 163.664C230.413 163.427 234.99 163.089 239.133 161.43C240.758 160.78 242.262 159.873 243.634 158.794L243.85 158.622C244.584 158.025 245.343 157.522 246.114 157.046C246.225 156.905 246.336 156.764 246.446 156.62C248.201 154.369 250.086 152.198 251.666 149.819C254.806 145.099 256.017 140.195 256.182 134.565C256.354 128.623 256.374 122.673 256.445 116.73L256.47 114.749C256.561 107.952 256.574 101.132 257.098 94.3518C257.339 91.2019 257.682 88.0666 258.21 84.9541L258.325 84.2875L259.178 79.4868C259.383 78.3304 259.502 77.1388 259.764 75.9874C259.47 75.5044 259.129 75.0394 258.734 74.5966C258.37 74.1883 258.001 73.7921 257.632 73.3986L257.366 73.1638C256.758 72.6213 256.236 72.1036 255.746 71.3573L255.628 71.1727C255.102 70.5383 254.606 69.8747 254.168 69.1457L254.087 69.0042C253.978 68.867 253.869 68.7294 253.756 68.5939C253.405 68.1715 253.037 67.7726 252.656 67.3905C251.32 69.9703 249.431 72.2049 246.757 73.6019C245.79 74.1071 244.61 73.6743 244.293 72.5995C243.493 69.8861 242.278 67.363 240.67 65.0781C237.985 69.546 233.728 73.0406 228.711 74.7458C227.457 75.1719 226.353 73.8568 226.647 72.6823C227.553 69.0723 227.733 65.4011 227.201 61.772C225.307 63.1253 223.354 64.3997 221.349 65.5813C216.886 69.031 212.157 72.1355 206.956 74.3647C205.754 74.88 203.946 74.0142 204.492 72.4706C204.952 71.171 205.33 69.8497 205.572 68.4927L205.625 68.1789C205.627 68.1695 205.627 68.1601 205.629 68.1504C193.583 84.7671 164.372 100.78 162.129 100.934L162.068 100.934C163.469 102.272 164.599 103.925 165.338 105.824C166.115 107.818 162.948 108.687 162.129 106.78L162.103 106.716C160.844 103.48 157.728 101.16 154.338 100.612C152.289 100.984 150.352 101.972 149.031 103.47C146.431 106.419 146.407 109.975 148.182 113.33L148.442 113.818C149.403 115.611 150.415 117.407 150.956 119.375C151.617 121.79 151.117 124.239 151.55 126.651L151.573 126.779C151.779 127.852 152.222 129.072 153.499 128.778C153.598 128.756 153.693 128.725 153.788 128.692C154.057 128.907 154.381 129.085 154.785 129.202C155.774 129.491 156.867 129.351 157.851 129.118C158.802 128.893 159.725 128.541 160.614 128.128C160.712 128.371 160.773 128.625 160.779 128.869C160.809 130.117 160.292 131.144 159.497 131.979C160.765 133.582 161.849 135.347 163.07 136.984C164.825 139.332 166.62 141.631 168.528 143.855C170.514 146.173 172.678 148.364 174.923 150.433C176.496 151.883 179.096 153.433 180.082 155.536C181.216 155.888 182.179 156.757 182.531 158.186C183.172 160.776 183.36 166.845 182.857 169.478C182.357 172.088 180.451 173.715 178.344 175.091C177.761 175.473 177.1 175.433 176.563 175.148C176.09 175.608 175.557 176.03 174.946 176.406C172.692 177.798 170.072 178.305 167.475 178.597C163.969 179.717 160.188 180.012 156.451 179.315C155.23 179.459 154.009 179.59 152.784 179.697C140.258 180.787 127.523 179.858 115.305 176.876C109.699 175.507 104.406 173.019 99.4739 169.824C90.9736 164.316 87.3759 148.858 92.3081 134.079L92.6986 132.914C94.9212 126.312 97.3179 119.744 100.531 113.585L100.914 112.852C103.867 107.234 107.116 101.622 111.43 96.9349C113.591 94.59 116.1 92.4597 118.935 90.9702C120.011 90.4052 121.267 90.0134 122.495 89.5689L122.52 89.2616L122.547 88.9546C122.628 87.9703 122.731 86.9877 122.864 86.0075C123.359 82.3414 124.059 78.7293 125.053 75.1628C126.049 71.5917 127.272 68.0806 128.745 64.6775C131.201 58.9999 134.286 53.6142 137.847 48.5606C138.102 48.0386 138.36 47.5186 138.624 47.0026C141.627 41.1351 145.515 35.5394 150.53 31.2084C156.287 26.2366 163.221 23.1502 170.457 20.983C177.962 18.7387 185.792 17.2022 193.612 16.6856C197.728 16.4138 201.851 16.4105 205.961 16.7527ZM151.077 111.015C154.844 108.549 159.977 110.24 161.886 114.246C163.265 117.148 158.706 118.781 157.984 115.89C157.266 112.991 154.183 110.914 151.221 111.357C151.017 111.391 150.889 111.136 151.077 111.015Z" fill="#222831"/>
<path fill-rule="evenodd" clip-rule="evenodd" d="M227.816 143.611C225.561 142.691 223.549 141.156 222.078 139.196C221.566 138.514 221.434 137.795 221.541 137.136C221.661 136.396 222.099 135.726 222.696 135.276C223.295 134.824 224.045 134.602 224.769 134.715C225.399 134.814 226.025 135.158 226.521 135.873L226.625 136.016C227.499 137.199 228.639 138.17 229.938 138.796C231.189 139.399 232.589 139.68 234.038 139.517C236.796 139.205 238.698 137.713 240.719 135.687C240.97 135.431 241.22 135.167 241.472 134.899C241.631 134.656 241.852 134.5 242.097 134.418C242.369 134.327 242.677 134.332 242.959 134.431C243.231 134.526 243.474 134.705 243.637 134.945C243.792 135.172 243.88 135.453 243.852 135.777C243.667 137.876 242.569 139.75 241.01 141.222C239.278 142.856 236.982 143.987 234.821 144.383C232.439 144.82 230.013 144.507 227.816 143.611ZM235.944 111.217C238.477 112.757 242.337 116.348 239.612 120.165C236.404 123.531 231.785 119.672 229.509 117.927C227.399 116.574 225.028 120.053 226.986 121.632C243.432 133.809 250.106 111.62 237.225 109.407C235.807 109.163 235.28 110.741 235.944 111.217ZM206.472 97.0533C206.752 93.579 212.043 92.7901 212.57 96.2281C213.041 99.3077 212.486 102.137 211.099 104.91C209.773 107.558 206.442 106.323 206.19 103.911C205.852 100.677 206.298 99.2145 206.472 97.0533ZM246.75 95.5152C247.488 94.549 248.553 93.8895 249.829 94.2622C253.817 95.4273 252.641 101.088 251.241 103.843C250.48 105.339 248.021 105.719 246.909 104.401C245.098 102.253 244.23 97.9625 246.533 95.8463C246.596 95.7369 246.665 95.6266 246.75 95.5152ZM211.043 81.8509L211.672 81.7407C213.621 81.4037 216.043 81.0799 217.422 82.6463C218.153 83.477 218.404 85.0208 217.422 85.8159C215.693 87.2148 213.782 86.6727 211.711 86.7911C210.004 86.8891 208.364 87.1716 206.72 87.6416C203.113 88.6725 200.174 90.5545 197.093 92.621C196.689 92.8921 196.276 92.3751 196.469 91.9971C198.247 88.5138 201.694 85.6525 205.146 83.9084C206.988 82.9774 209.004 82.2052 211.043 81.8509ZM243.116 80.2906L243.598 80.3892C248.844 81.4858 255.66 83.6762 258.144 88.8289C258.238 89.5575 258.138 89.7137 258.057 89.8157L258.03 89.8497C257.963 89.9368 257.909 90.0569 257.594 90.1561C257.506 90.1352 257.418 90.1131 257.328 90.0896C256.189 89.7912 255.288 89.3801 254.416 88.9535L253.471 88.4876C252.373 87.9496 251.266 87.4312 250.093 87.0485C247.59 86.232 245.015 85.6568 242.4 85.3497C241.834 85.2832 241.288 85.0919 240.857 84.7641C240.449 84.4529 240.136 84.0221 239.994 83.4495C239.81 82.7084 239.863 82.1473 240.26 81.4787C240.559 80.9766 240.987 80.6286 241.478 80.4288C241.979 80.2251 242.549 80.177 243.116 80.2906Z" fill="#222831"/>
<path fill-rule="evenodd" clip-rule="evenodd" d="M265.967 113.258C261.894 117.467 255.094 118.674 249.675 116.417C235.761 110.604 242.572 92.4712 253.303 87.6018C254.643 87.2677 256.434 86.4749 258.066 86.2951C258.214 86.2227 258.535 86.4323 258.925 86.2341C270.757 87.5552 273.452 105.923 265.967 113.258ZM221.087 114.335C216.519 120.394 208.026 122.264 201.087 119.447C187.379 114.048 192.241 97.9694 201.62 91.6658C221.432 84.2212 229.614 103.164 221.087 114.335ZM191.371 100.91C191.358 100.904 191.345 100.901 191.332 100.895C191.405 100.863 191.477 100.831 191.549 100.799C191.526 100.86 191.5 100.921 191.478 100.982C191.442 100.958 191.411 100.929 191.371 100.91ZM275.398 94.3607C274.279 94.363 272.664 94.5468 271.738 95.3228C269.454 87.6226 261.027 80.4961 253.697 85.6926C247.925 87.5488 243.642 91.6654 241.208 97.1384C236.819 94.5277 229.918 95.6425 226.112 99.0949C223.619 90.8586 217.484 87.9745 210.183 87.5488C202.213 86.2435 194.27 93.9832 191.791 100.192C189.73 99.9577 186.651 99.3019 184.712 100.574C172.13 97.2739 150.131 95.4546 147.573 97.288C145.75 97.9875 144.749 102.29 147.296 102.522C149.514 102.207 147.037 99.3697 149.273 99.06C161.19 98.3213 172.759 100.721 184.55 101.728C185.603 103.144 189.004 103.618 190.819 103.049C187.961 113.582 194.131 120.748 203.375 122.894C217.688 126.182 230.142 113.377 226.399 100.059C230.735 97.9019 235.722 97.9945 240.446 99.1308C232.553 128.18 279.337 126.876 272.03 96.3182C276.893 98.7369 277.949 94.8488 275.398 94.3607Z" fill="#7FB949"/>
</svg>
